#!OML:ASF I:\Random Stuff\random\construction\7_22_03\Session 2\subj1.ASF
:FULLY-SPECIFIED
:DEGREES
298
root -1.81734 17.7661 0.630509 -13.5159 85.6571 -20.447
lowerback 0.830151 -0.550959 0.761784
upperback -2.48644 -0.606097 2.62015
thorax -2.99977 -0.268466 2.28787
lowerneck -23.1879 -2.83398 -1.27805
upperneck 35.7185 -4.0195 2.54124
head 16.9924 -1.14586 0.60067
rclavicle -6.83322e-015 -3.18055e-015
rhumerus -33.9669 -2.54061 -80.1447
rradius 81.4199
rwrist -26.0441
rhand -21.9413 13.3599
rfingers 7.12502
rthumb 4.46541 -16.573
lclavicle -6.83322e-015 -3.18055e-015
lhumerus -36.0706 -2.52441 90.8489
lradius 34.9613
lwrist 29.6566
lhand -15.779 52.8069
lfingers 7.12502
lthumb 10.4133 82.529
rfemur -5.90132 15.6632 19.5105
rtibia 9.53281
rfoot -4.50392 -21.7067
rtoes -16.5087
lfemur -9.71569 -17.8462 -13.229
ltibia 17.4558
lfoot -12.9072 17.434
ltoes -31.9225
299
root -1.83303 17.7691 0.63178 -18.1001 86.2942 -25.183
lowerback 0.8172 -0.722534 0.832959
upperback -2.59433 -0.827609 2.65335
thorax -3.09703 -0.378628 2.2909
lowerneck -23.2699 -2.67024 -1.1503
upperneck 35.7385 -3.76984 2.40583
head 17.0075 -1.046 0.5701
rclavicle -1.34925e-014 -1.59028e-015
rhumerus -33.4856 -1.36996 -80.8537
rradius 81.7424
rwrist -28.4419
rhand -22.0382 12.4468
rfingers 7.12502
rthumb 4.37191 -17.488
lclavicle -1.34925e-014 -1.59028e-015
lhumerus -36.0273 -2.66156 90.9746
lradius 35.1508
lwrist 29.7596
lhand -15.776 52.7725
lfingers 7.12502
lthumb 10.4162 82.4945
rfemur -5.79008 14.9664 19.6901
rtibia 9.19646
rfoot -4.52561 -21.6661
rtoes -16.0206
lfemur -10.32 -17.0969 -12.9897
ltibia 17.7283
lfoot -12.6543 16.1155
ltoes -32.5419
300
root -1.85203 17.7703 0.638827 -22.4157 86.6936 -29.5575
lowerback 0.924423 -0.811461 0.722509
upperback -2.64705 -0.942116 2.72041
thorax -3.20551 -0.430983 2.42888
lowerneck -23.3922 -2.52509 -0.950961
upperneck 35.7086 -3.53736 2.15423
head 17.0021 -0.963209 0.469946
rclavicle -1.55301e-014 8.74653e-015
rhumerus -32.8429 -0.305002 -81.4072
rradius 81.7761
rwrist -31.7702
rhand -20.0967 10.9201
rfingers 7.12502
rthumb 6.24642 -18.9678
lclavicle -1.55301e-014 8.74653e-015
lhumerus -35.9188 -2.66556 91.08
lradius 35.3395
lwrist 29.7239
lhand -15.6957 52.8232
lfingers 7.12502
lthumb 10.4937 82.5413
rfemur -5.61853 14.5047 19.843
rtibia 8.82308
rfoot -4.42322 -21.6022
rtoes -15.9588
lfemur -10.774 -16.5074 -12.8185
ltibia 18.05
lfoot -12.6173 15.1329
ltoes -33.0312
301
root -1.87544 17.7736 0.637935 -27.673 87.099 -34.9379
lowerback 1.04301 -0.878673 0.70505
upperback -2.73015 -1.02548 2.74031
thorax -3.35484 -0.470338 2.46595
lowerneck -23.4348 -2.3103 -0.656496
upperneck 35.6558 -3.23837 1.9052
head 16.9636 -0.839741 0.369375
rclavicle 1.13059e-014 -1.82882e-014
rhumerus -32.3865 0.49435 -81.9439
rradius 81.9974
rwrist -34.8215
rhand -19.5424 10.1597
rfingers 7.12502
rthumb 6.78154 -19.7117
lclavicle 1.13059e-014 -1.82882e-014
lhumerus -35.7527 -2.64232 91.161
lradius 35.4909
lwrist 29.5882
lhand -15.6287 53.0365
lfingers 7.12502
lthumb 10.5583 82.7513
rfemur -5.54731 14.0122 19.8866
rtibia 8.40146
rfoot -4.25524 -21.4622
rtoes -15.8613
lfemur -11.354 -16.2141 -12.6733
ltibia 18.4205
lfoot -12.6104 14.4114
ltoes -33.1612
302
root -1.90089 17.7768 0.637533 -34.4459 87.3357 -41.8826
lowerback 1.14749 -0.874144 0.790067
upperback -2.83662 -1.00875 2.75568
thorax -3.52611 -0.461936 2.43726
lowerneck -23.3936 -2.1589 -0.280033
upperneck 35.5737 -3.00225 1.48626
head 16.8862 -0.757194 0.166012
rclavicle -7.57867e-015 1.59028e-015
rhumerus -32.0413 1.22014 -82.4838
rradius 82.2847
rwrist -37.0692
rhand -19.7734 9.68305
rfingers 7.12502
rthumb 6.55858 -20.1954
lclavicle -7.57867e-015 1.59028e-015
lhumerus -35.7035 -2.8983 91.3176
lradius 35.7536
lwrist 29.7201
lhand -15.692 53.175
lfingers 7.12502
lthumb 10.4973 82.8929
rfemur -5.55329 13.6327 19.9844
rtibia 7.94417
rfoot -4.03252 -21.3069
rtoes -15.5733
lfemur -11.9726 -15.8457 -12.4349
ltibia 18.7978
lfoot -12.6441 13.7128
ltoes -33.0227
303
root -1.92635 17.7801 0.639773 -42.9313 87.4491 -50.5904
lowerback 1.17255 -0.838881 0.89688
upperback -2.92909 -0.950196 2.80687
thorax -3.63939 -0.432755 2.4298
lowerneck -23.487 -1.98145 0.065708
upperneck 35.7103 -2.74016 1.14948
head 16.9614 -0.647303 0.011356
rclavicle -6.53505e-015 2.38542e-014
rhumerus -31.5212 2.05791 -82.9217
rradius 82.1807
rwrist -38.7492
rhand -19.9038 9.29383
rfingers 7.12502
rthumb 6.43265 -20.5885
lclavicle -6.53505e-015 2.38542e-014
lhumerus -35.6679 -3.27136 91.5377
lradius 36.0469
lwrist 29.9652
lhand -15.7282 53.1765
lfingers 7.12502
lthumb 10.4624 82.8961
rfemur -5.56015 13.2968 20.1675
rtibia 7.38272
rfoot -3.77965 -21.1765
rtoes -15.1706
lfemur -12.6327 -15.41 -12.1038
ltibia 19.1713
lfoot -12.5795 13.0341
ltoes -33.438
304
root -1.95162 17.7821 0.641173 -54.5517 87.5612 -62.3676
lowerback 1.26067 -0.840346 1.02654
upperback -3.00201 -0.939527 2.84738
thorax -3.767 -0.428713 2.40136
lowerneck -23.7584 -2.08906 -0.194525
upperneck 36.1295 -2.86235 1.36577
head 17.2619 -0.683434 0.130057
rclavicle 1.28216e-014 -4.45278e-014
rhumerus -30.9315 2.93869 -83.2936
rradius 81.803
rwrist -40.1909
rhand -19.6947 9.13892
rfingers 7.12502
rthumb 6.63454 -20.7372
lclavicle 1.28216e-014 -4.45278e-014
lhumerus -35.5861 -3.58194 91.726
lradius 36.2814
lwrist 30.0693
lhand -15.6952 53.139
lfingers 7.12502
lthumb 10.4942 82.857
rfemur -5.3756 12.8409 20.4004
rtibia 6.66474
rfoot -3.53065 -21.0388
rtoes -14.5572
lfemur -13.2391 -15.2697 -11.7734
ltibia 19.541
lfoot -12.4802 12.5618
ltoes -34.077
305
root -1.9754 17.7834 0.642448 -66.9327 87.572 -74.8143
lowerback 1.40917 -0.838228 1.17842
upperback -3.03388 -0.924296 2.86593
thorax -3.88711 -0.42426 2.33798
lowerneck -23.8134 -2.03629 -0.272355
upperneck 36.3723 -2.78952 1.51465
head 17.4107 -0.630682 0.230164
rclavicle -7.7526e-015 1.51076e-014
rhumerus -30.3924 3.77033 -83.6557
rradius 81.5641
rwrist -41.4175
rhand -19.5719 8.77381
rfingers 7.12502
rthumb 6.75309 -21.0985
lclavicle -7.7526e-015 1.51076e-014
lhumerus -35.5456 -3.95318 91.9101
lradius 36.6011
lwrist 30.1133
lhand -15.6637 53.1936
lfingers 7.12502
lthumb 10.5245 82.9101
rfemur -5.0181 12.3772 20.6475
rtibia 5.82271
rfoot -3.17065 -20.8818
rtoes -14.3688
lfemur -13.7128 -15.3468 -11.4677
ltibia 19.8654
lfoot -12.4664 12.2538
ltoes -34.3383
306
root -1.99873 17.7845 0.64516 -76.0148 87.4933 -83.9466
lowerback 1.53722 -0.776733 1.26486
upperback -3.03438 -0.833842 2.8815
thorax -3.96427 -0.381008 2.30362
lowerneck -23.7935 -2.0088 -0.312423
upperneck 36.4911 -2.71358 1.51419
head 17.4696 -0.599116 0.255912
rclavicle -1.64743e-014 4.13472e-014
rhumerus -29.9116 4.59889 -84.0202
rradius 81.5907
rwrist -42.1702
rhand -22.4468 9.41763
rfingers 7.12502
rthumb 3.9773 -20.525
lclavicle -1.64743e-014 4.13472e-014
lhumerus -35.439 -4.33662 92.1218
lradius 36.863
lwrist 30.1132
lhand -15.7198 53.2887
lfingers 7.12502
lthumb 10.4704 83.0079
rfemur -4.69031 12.0299 20.8328
rtibia 5.0271
rfoot -2.85033 -20.7294
rtoes -14.2282
lfemur -14.1105 -15.3962 -11.2148
ltibia 20.1301
lfoot -12.4831 11.9941
ltoes -34.2438
307
root -2.02279 17.7868 0.647966 -81.3789 87.3986 -89.4075
lowerback 1.65786 -0.653178 1.29704
upperback -3.06999 -0.661949 2.87501
thorax -4.07544 -0.295774 2.27281
lowerneck -23.7538 -1.98037 -0.192918
upperneck 36.6902 -2.5995 1.26547
head 17.5573 -0.564137 0.149863
rclavicle -6.13748e-015 0
rhumerus -29.5495 5.44238 -84.3664
rradius 81.7463
rwrist -42.5835
rhand -25.1698 9.73061
rfingers 7.12502
rthumb 1.34755 -20.2449
lclavicle -6.13748e-015 0
lhumerus -35.3433 -4.81502 92.3502
lradius 37.0981
lwrist 30.223
lhand -15.9755 53.5163
lfingers 7.12502
lthumb 10.2238 83.2478
rfemur -4.4311 11.808 20.9192
rtibia 4.18862
rfoot -2.48413 -20.5656
rtoes -13.6363
lfemur -14.4771 -15.5431 -11.0045
ltibia 20.3071
lfoot -12.4507 11.9688
ltoes -33.9166
308
root -2.03918 17.7838 0.648245 -99.0509 87.3069 -106.988
lowerback 1.9131 -0.723784 1.34113
upperback -3.07224 -0.750371 2.81566
thorax -4.22131 -0.342659 2.19553
lowerneck -23.7122 -1.95065 0.0126433
upperneck 36.9786 -2.4909 0.958798
head 17.692 -0.523641 0.00147944
rclavicle -2.5842e-015 -1.07344e-014
rhumerus -29.2634 6.25306 -84.7196
rradius 81.8483
rwrist -42.6775
rhand -27.0949 9.74484
rfingers 7.12502
rthumb -0.511755 -20.2343
lclavicle -2.5842e-015 -1.07344e-014
lhumerus -35.3024 -5.31586 92.531
lradius 37.3847
lwrist 30.3843
lhand -16.195 53.7376
lfingers 7.12502
lthumb 10.012 83.4794
rfemur -3.84047 10.9977 21.0314
rtibia 3.46641
rfoot -2.42139 -20.4488
rtoes -12.2622
lfemur -14.7023 -16.1765 -10.909
ltibia 20.4067
lfoot -12.3262 11.7888
ltoes -33.44
309
root -2.06102 17.789 0.65137 -100.281 87.2426 -108.333
lowerback 1.98071 -0.539656 1.3052
upperback -3.0859 -0.50553 2.76452
thorax -4.28071 -0.220592 2.15031
lowerneck -23.7308 -1.99344 0.0491676
upperneck 37.2858 -2.50176 0.855011
head 17.8635 -0.523443 -0.0511742
rclavicle 5.7896e-015 -2.78299e-015
rhumerus -28.9382 6.95189 -85.0832
rradius 81.8498
rwrist -42.5081
rhand -28.5236 9.37724
rfingers 7.12502
rthumb -1.8916 -20.5941
lclavicle 5.7896e-015 -2.78299e-015
lhumerus -35.1618 -5.67723 92.6613
lradius 37.5851
lwrist 30.3876
lhand -16.139 53.6145
lfingers 7.12502
lthumb 10.066 83.3538
rfemur -3.81441 10.9216 21.014
rtibia 2.9855
rfoot -2.08536 -20.3228
rtoes -11.9948
lfemur -14.9574 -16.5638 -10.7702
ltibia 20.4502
lfoot -12.2561 12.0863
ltoes -33.114
